<?xml version="1.0" encoding="utf-8"?>
<!-- Generator: Adobe Illustrator 24.3.0, SVG Export Plug-In . SVG Version: 6.00 Build 0)  -->
<svg version="1.1" id="Layer_1" xmlns="http://www.w3.org/2000/svg" xmlns:xlink="http://www.w3.org/1999/xlink" x="0px" y="0px"
	 viewBox="0 0 297.64 299.67" style="enable-background:new 0 0 297.64 299.67;" xml:space="preserve">
<style type="text/css">
	.st0{fill:#FFFFFF;}
</style>
<path class="st0" d="M257.81,40.91c-25.28,27.26-48.02,52.6-71.77,76.96c-7.96,8.16-8.11,13.6-1.52,22.59
	c26.83,36.55,52.9,73.65,81.44,113.61c-29.89,0-56.94,0.54-83.92-0.54c-4.35-0.17-9.11-7.04-12.5-11.67
	c-14.13-19.29-27.81-38.9-42.91-60.16c-18.4,19.63-36.12,38.59-53.92,57.49c-16.61,17.64-16.64,17.61-45.85,13.33
	c28.38-30.59,55.82-60.16,84.72-91.31C83.53,121.74,55.39,82.15,25.02,39.42c30.15,0,56.74-0.43,83.27,0.46
	c3.98,0.13,8.47,5.92,11.49,10c13.81,18.7,27.19,37.72,41.65,57.93c17.71-18.77,35.58-35.47,50.66-54.4
	C224.18,38.25,237.98,37.14,257.81,40.91z M217.07,227.7c-35.84-50.06-71.2-98.13-104.92-147.33
	c-9.86-14.39-20.18-19.62-37.73-14.74c4.7,7.14,8.67,13.67,13.11,19.87c30.62,42.74,61.95,85,91.67,128.35
	C188.77,227.79,199.03,233.12,217.07,227.7z"/>
</svg>
