<?xml version="1.0" encoding="utf-8"?>
<!-- Generator: Adobe Illustrator 24.3.0, SVG Export Plug-In . SVG Version: 6.00 Build 0)  -->
<svg version="1.1" id="Layer_1" xmlns="http://www.w3.org/2000/svg" xmlns:xlink="http://www.w3.org/1999/xlink" x="0px" y="0px"
	 viewBox="0 0 297.64 299.67" style="enable-background:new 0 0 297.64 299.67;" xml:space="preserve">
<style type="text/css">
	.st0{fill:#FFFFFF;}
</style>
<path class="st0" d="M149.08,257.65c-30.39,0-60.78,0.31-91.16-0.09c-26.96-0.36-40.26-13.47-40.48-40.29
	c-0.31-36.99-0.26-73.99,0.47-110.98c0.57-29.02,13.06-40.84,41.43-40.87c60.78-0.07,121.56-0.08,182.34,0.01
	c26.32,0.04,40.02,13.54,40.26,40.27c0.33,37.65,0.39,75.31-0.01,112.97c-0.26,24.93-12.68,37.96-37.75,38.59
	c-31.68,0.79-63.4,0.19-95.11,0.19C149.08,257.51,149.08,257.58,149.08,257.65z M123.25,125.27c-3.19,4.21-7.99,7.63-8.17,11.28
	c-0.82,16.48-1.03,33.08,0.28,49.5c0.26,3.2,9.76,9.24,12.49,8.08c17.59-7.48,34.7-16.21,51.37-25.59
	c2.46-1.38,3.57-11.52,2.26-12.27C163.22,145.83,144.44,136.33,123.25,125.27z"/>
</svg>
